<mxfile host="app.diagrams.net" modified="2022-03-10T05:47:55.405Z" agent="5.0 (Windows NT 10.0; Win64; x64) AppleWebKit/537.36 (KHTML, like Gecko) Chrome/98.0.4758.102 Safari/537.36" etag="6XdyiJ_TdTvjOFlwd-Uo" version="17.1.0" type="github">
  <diagram id="-is_gTBo_PynR09iVpQi" name="Page-1">
    <mxGraphModel dx="924" dy="752" grid="1" gridSize="10" guides="1" tooltips="1" connect="1" arrows="1" fold="1" page="1" pageScale="1" pageWidth="827" pageHeight="1169" math="0" shadow="0">
      <root>
        <mxCell id="0" />
        <mxCell id="1" parent="0" />
        <mxCell id="2j5CQUISTZzuwl1tFkkF-1" value="Home" style="rounded=1;whiteSpace=wrap;html=1;" vertex="1" parent="1">
          <mxGeometry x="200" y="140" width="120" height="60" as="geometry" />
        </mxCell>
        <mxCell id="2j5CQUISTZzuwl1tFkkF-2" value="Statistics" style="rounded=1;whiteSpace=wrap;html=1;" vertex="1" parent="1">
          <mxGeometry x="380" y="140" width="120" height="60" as="geometry" />
        </mxCell>
        <mxCell id="2j5CQUISTZzuwl1tFkkF-3" value="History" style="rounded=1;whiteSpace=wrap;html=1;" vertex="1" parent="1">
          <mxGeometry x="570" y="140" width="120" height="60" as="geometry" />
        </mxCell>
        <mxCell id="2j5CQUISTZzuwl1tFkkF-4" value="Settings" style="rounded=1;whiteSpace=wrap;html=1;" vertex="1" parent="1">
          <mxGeometry x="990" y="130" width="120" height="60" as="geometry" />
        </mxCell>
        <mxCell id="2j5CQUISTZzuwl1tFkkF-5" value="Name" style="rounded=1;whiteSpace=wrap;html=1;" vertex="1" parent="1">
          <mxGeometry x="740" y="290" width="120" height="60" as="geometry" />
        </mxCell>
        <mxCell id="2j5CQUISTZzuwl1tFkkF-6" value="" style="endArrow=none;html=1;rounded=0;" edge="1" parent="1">
          <mxGeometry width="50" height="50" relative="1" as="geometry">
            <mxPoint x="170" y="250" as="sourcePoint" />
            <mxPoint x="1100" y="250" as="targetPoint" />
          </mxGeometry>
        </mxCell>
        <mxCell id="2j5CQUISTZzuwl1tFkkF-7" value="Date of Birth" style="rounded=1;whiteSpace=wrap;html=1;" vertex="1" parent="1">
          <mxGeometry x="910" y="290" width="120" height="60" as="geometry" />
        </mxCell>
        <mxCell id="2j5CQUISTZzuwl1tFkkF-8" value="Height" style="rounded=1;whiteSpace=wrap;html=1;" vertex="1" parent="1">
          <mxGeometry x="1080" y="290" width="120" height="60" as="geometry" />
        </mxCell>
        <mxCell id="2j5CQUISTZzuwl1tFkkF-9" value="Weight" style="rounded=1;whiteSpace=wrap;html=1;" vertex="1" parent="1">
          <mxGeometry x="1251" y="290" width="120" height="60" as="geometry" />
        </mxCell>
        <mxCell id="2j5CQUISTZzuwl1tFkkF-10" value="Save" style="rounded=1;whiteSpace=wrap;html=1;" vertex="1" parent="1">
          <mxGeometry x="910" y="450" width="120" height="60" as="geometry" />
        </mxCell>
        <mxCell id="2j5CQUISTZzuwl1tFkkF-11" value="Load" style="rounded=1;whiteSpace=wrap;html=1;" vertex="1" parent="1">
          <mxGeometry x="1080" y="450" width="120" height="60" as="geometry" />
        </mxCell>
        <mxCell id="2j5CQUISTZzuwl1tFkkF-12" value="LOAD" style="rounded=1;whiteSpace=wrap;html=1;" vertex="1" parent="1">
          <mxGeometry x="380" y="290" width="120" height="60" as="geometry" />
        </mxCell>
      </root>
    </mxGraphModel>
  </diagram>
</mxfile>
